 <svg  version="1.0" xmlns="http://www.w3.org/2000/svg"  width="180.000000pt" height="180.000000pt" viewBox="0 0 180.000000 180.000000"  preserveAspectRatio="xMidYMid meet">  <g transform="translate(0.000000,180.000000) scale(0.050000,-0.050000)" fill="#ffffff" stroke="none"> <path d="M1300 3102 c-460 -290 -582 -940 -245 -1304 675 -728 1912 -127 1619 786 -81 253 -392 606 -502 570 -39 -13 -108 -133 -122 -213 -13 -76 -14 -77 -76 -59 -82 23 -286 23 -367 0 -61 -17 -63 -16 -74 57 -30 182 -112 240 -233 163z m4 -488 c-10 -63 -14 -114 -8 -114 5 0 79 35 165 78 258 129 457 124 697 -17 119 -70 149 -76 135 -26 -21 75 -36 285 -20 285 60 0 194 -291 218 -476 76 -569 -860 -857 -1270 -390 -182 206 -172 523 25 789 76 103 90 73 58 -129z"/> <path d="M302 1050 c-114 -104 -145 -182 -138 -355 8 -202 83 -223 91 -25 19 450 385 461 385 12 0 -125 22 -162 71 -121 71 59 22 350 -77 456 -113 121 -222 132 -332 33z"/> <path d="M965 1080 c-277 -169 -103 -606 208 -522 92 25 178 105 160 151 -16 42 -60 39 -102 -8 -74 -82 -237 -61 -290 38 -89 165 107 353 258 248 l47 -33 -133 -68 c-128 -64 -166 -114 -105 -138 15 -6 101 26 190 71 181 91 197 121 107 205 -114 106 -227 125 -340 56z"/> <path d="M1469 1095 c-25 -67 6 -359 45 -411 86 -118 356 -174 356 -74 0 34 -17 42 -105 51 -129 12 -184 61 -199 176 l-11 83 71 0 c39 0 77 9 85 21 21 34 -32 79 -93 79 -49 0 -58 8 -58 50 0 54 -72 74 -91 25z"/> <path d="M2029 1083 c-310 -190 -59 -662 266 -500 95 47 128 102 87 143 -16 16 -40 8 -86 -26 -95 -70 -187 -64 -259 16 -146 164 60 398 239 272 36 -25 52 -26 75 -7 111 92 -184 186 -322 102z"/> <path d="M2586 1081 c-271 -165 -105 -602 200 -524 53 13 86 14 91 2 3 -10 24 -19 45 -19 37 0 39 14 34 284 l-6 284 -150 6 c-121 5 -163 -2 -214 -33z m235 -82 c47 -25 58 -279 14 -314 -128 -102 -321 29 -285 193 25 114 167 177 271 121z"/> <path d="M3080 935 c0 -214 31 -287 146 -342 83 -39 246 -44 259 -8 19 51 -10 75 -88 75 -100 0 -194 48 -206 105 -29 135 -26 145 55 151 102 9 103 90 1 100 -48 5 -66 18 -75 55 -8 31 -27 49 -52 49 -37 0 -40 -14 -40 -185z"/> </g> </svg> 